<?xml version="1.0" encoding="UTF-8" standalone="no"?>
<!DOCTYPE svg PUBLIC "-//W3C//DTD SVG 1.1//EN" "http://www.w3.org/Graphics/SVG/1.1/DTD/svg11.dtd">
<svg xmlns="http://www.w3.org/2000/svg" version="1.1" viewBox="0.00 0.00 671.00 372.00">
<rect fill="#42494e" x="-7.23" y="-109.25" transform="translate(368.37,132.52) rotate(0.2)" width="14.46" height="218.50" rx="7.01"/>
<path fill="#d92128" d="
  M 109.87 191.16
  C 102.45 188.24 97.45 185.06 91.42 181.12
  C 87.45 178.52 84.35 175.29 80.90 172.16
  C 76.97 168.59 73.53 163.90 70.47 159.74
  Q 67.58 155.81 64.05 148.71
  Q 55.57 131.67 55.21 114.03
  Q 54.99 103.16 56.31 95.22
  C 57.87 85.88 61.47 77.02 65.90 68.53
  Q 68.05 64.42 70.99 60.34
  Q 87.14 37.88 112.94 28.48
  C 126.57 23.51 140.75 22.67 154.87 24.35
  Q 160.38 25.01 165.71 26.53
  C 172.05 28.34 177.22 30.82 182.90 33.54
  Q 186.11 35.07 189.07 36.99
  Q 204.85 47.20 215.52 63.18
  C 218.03 66.95 219.75 70.96 221.78 74.94
  C 227.52 86.21 211.59 91.66 208.28 81.24
  C 206.72 76.34 203.31 71.78 200.34 67.55
  Q 198.03 64.27 195.24 61.32
  Q 190.15 55.94 187.41 54.02
  Q 182.31 50.42 176.78 46.92
  Q 173.04 44.55 162.61 41.34
  Q 141.17 34.75 120.03 41.89
  C 116.32 43.14 112.38 44.49 108.98 46.30
  Q 88.63 57.13 77.66 77.82
  C 76.57 79.87 75.65 82.52 74.80 84.76
  Q 66.16 107.40 72.69 129.89
  C 75.00 137.83 78.53 146.42 83.76 152.61
  C 85.62 154.81 86.96 157.36 89.03 159.39
  Q 94.30 164.58 99.88 169.00
  C 102.23 170.87 105.15 172.21 107.78 173.73
  C 123.96 183.02 143.10 184.46 161.12 180.21
  C 169.62 178.20 174.58 187.99 167.73 193.10
  Q 166.51 194.01 164.09 194.63
  Q 136.65 201.70 109.87 191.16
  Z"
/>
<path fill="#42494e" d="
  M 503.65 180.93
  A 59.26 59.26 0.0 0 1 444.39 240.19
  A 59.26 59.26 0.0 0 1 385.13 180.93
  A 59.26 59.26 0.0 0 1 444.39 121.67
  A 59.26 59.26 0.0 0 1 503.65 180.93
  Z
  M 489.35 180.92
  A 44.98 44.98 0.0 0 0 444.37 135.94
  A 44.98 44.98 0.0 0 0 399.39 180.92
  A 44.98 44.98 0.0 0 0 444.37 225.90
  A 44.98 44.98 0.0 0 0 489.35 180.92
  Z"
/>
<path fill="#42494e" d="
  M 334.01 143.09
  Q 334.16 137.20 334.09 131.29
  Q 334.05 127.82 335.33 125.91
  C 339.44 119.75 348.68 122.71 348.60 130.34
  Q 348.07 181.48 347.70 234.58
  C 347.67 239.71 342.28 242.82 337.83 241.00
  C 332.41 238.78 333.20 234.32 333.26 229.71
  Q 333.32 225.27 333.39 220.82
  Q 333.42 219.02 332.27 220.41
  C 322.39 232.44 306.24 239.74 291.40 240.24
  Q 282.75 240.52 275.56 239.18
  C 267.74 237.72 260.90 234.15 254.10 229.89
  C 249.85 227.22 246.06 223.10 242.59 219.40
  Q 239.41 216.02 235.67 209.12
  C 226.29 191.84 226.01 169.99 235.95 152.98
  C 237.54 150.28 239.04 147.30 241.01 144.95
  Q 244.92 140.28 249.80 135.96
  Q 253.72 132.48 260.78 128.68
  Q 272.77 122.22 287.11 122.13
  Q 299.05 122.06 307.94 125.46
  Q 323.52 131.42 333.45 143.29
  Q 333.99 143.93 334.01 143.09
  Z
  M 332.94 181.26
  A 44.98 44.98 0.0 0 0 287.96 136.28
  A 44.98 44.98 0.0 0 0 242.98 181.26
  A 44.98 44.98 0.0 0 0 287.96 226.24
  A 44.98 44.98 0.0 0 0 332.94 181.26
  Z"
/>
<path fill="#42494e" d="
  M 526.55 141.41
  C 530.00 138.05 533.37 134.56 537.53 132.01
  C 546.81 126.33 555.87 122.59 566.92 122.25
  C 573.76 122.04 580.82 122.26 587.30 124.40
  C 609.12 131.62 624.77 148.24 628.74 170.82
  Q 629.84 177.11 629.81 184.89
  Q 629.71 210.00 629.78 235.82
  Q 629.79 237.89 628.51 239.35
  Q 623.20 245.44 617.18 240.08
  Q 615.48 238.57 615.48 236.29
  Q 615.50 210.38 615.44 179.67
  C 615.41 165.31 607.20 152.10 595.65 143.94
  C 592.24 141.52 588.03 139.83 584.12 138.51
  C 574.54 135.28 562.73 135.39 553.19 139.92
  C 551.08 140.92 548.72 141.57 546.79 142.86
  Q 541.42 146.46 536.25 151.94
  C 533.60 154.75 531.59 158.71 529.76 162.22
  C 526.72 168.02 525.52 174.34 525.48 181.02
  Q 525.33 205.69 525.05 234.37
  C 524.96 244.32 510.44 243.86 510.98 233.63
  Q 511.02 232.72 511.03 231.83
  Q 511.34 181.97 511.81 132.05
  Q 511.85 127.79 513.05 125.72
  Q 515.13 122.11 520.16 122.71
  C 524.21 123.19 526.10 127.28 525.99 131.05
  Q 525.84 136.30 525.90 141.14
  Q 525.91 142.04 526.55 141.41
  Z"
/>
<path fill="#d92128" d="
  M 43.56 279.16
  Q 47.75 276.00 52.82 279.19
  C 55.23 280.72 55.49 283.89 56.76 286.31
  Q 70.48 312.54 96.30 325.50
  Q 99.32 327.01 102.27 327.94
  C 105.09 328.83 107.75 330.10 110.64 330.88
  Q 141.83 339.34 171.55 325.42
  C 175.65 323.50 179.49 320.85 183.39 318.44
  C 187.58 315.86 191.02 312.25 194.65 308.98
  C 197.77 306.16 199.95 302.77 202.68 299.65
  Q 204.32 297.78 205.63 295.69
  Q 210.95 287.21 214.83 277.35
  Q 218.18 268.79 219.21 257.85
  C 220.57 243.23 219.09 228.08 212.90 214.64
  C 210.67 209.80 208.20 204.65 205.10 200.18
  C 196.43 187.73 183.95 176.46 169.85 170.49
  C 166.86 169.22 164.06 167.91 161.04 166.92
  Q 136.26 158.74 111.33 165.52
  C 101.50 168.19 97.57 153.79 107.20 151.33
  Q 127.79 146.05 145.95 148.52
  Q 152.57 149.42 159.40 151.00
  C 169.18 153.26 178.96 157.85 187.02 162.77
  Q 202.46 172.20 214.94 188.43
  Q 217.80 192.14 219.80 195.71
  C 221.71 199.15 223.80 202.33 225.41 205.94
  Q 240.25 239.22 231.37 273.73
  C 230.47 277.19 229.10 280.75 228.06 284.31
  Q 227.47 286.31 226.49 288.38
  Q 222.78 296.14 218.24 303.42
  Q 215.87 307.22 213.10 310.45
  C 210.58 313.37 208.36 316.60 205.49 319.17
  C 201.83 322.46 198.50 325.98 194.42 328.69
  C 191.39 330.71 188.57 333.08 185.46 334.84
  Q 176.36 339.96 166.31 343.61
  Q 157.46 346.82 146.87 348.01
  Q 132.12 349.67 117.26 347.50
  C 106.40 345.92 96.35 342.12 86.69 337.18
  Q 79.41 333.45 69.89 326.02
  Q 67.28 323.99 64.96 321.52
  C 62.86 319.30 60.38 317.53 58.42 315.12
  Q 54.67 310.50 51.27 305.83
  Q 44.87 297.00 41.15 287.20
  Q 39.31 282.37 43.56 279.16
  Z"
/>
<rect fill="#d92128" x="254.46" y="258.52" width="4.54" height="21.72" rx="2.20"/>
<path fill="#d92128" d="
  M 287.71 268.46
  L 287.70 278.14
  A 2.08 2.07 74.9 0 1 286.68 279.93
  Q 286.04 280.32 285.48 280.24
  Q 283.49 279.98 283.48 277.96
  L 283.48 268.45
  Q 283.48 267.72 282.75 267.74
  Q 281.75 267.78 280.94 267.19
  Q 280.34 266.75 280.50 266.04
  Q 280.85 264.42 282.82 264.66
  A 0.63 0.63 0.0 0 0 283.52 263.96
  Q 283.35 262.49 283.79 260.96
  C 284.64 257.99 289.54 258.25 291.59 259.12
  A 0.84 0.84 0.0 0 1 292.08 259.74
  Q 292.28 260.93 291.20 261.37
  C 290.42 261.69 289.54 261.09 288.58 261.37
  A 1.04 1.03 85.4 0 0 287.84 262.25
  L 287.65 263.96
  Q 287.57 264.61 288.22 264.59
  Q 289.03 264.57 289.81 264.89
  A 1.43 1.43 0.0 0 1 289.89 267.51
  Q 289.26 267.81 288.55 267.72
  Q 287.71 267.61 287.71 268.46
  Z"
/>
<circle fill="#d92128" cx="383.98" cy="260.61" r="1.99"/>
<path fill="#d92128" d="
  M 375.29 268.29
  L 375.33 276.01
  A 1.38 1.37 77.7 0 0 377.27 277.26
  Q 378.65 276.62 379.65 277.66
  A 1.14 1.14 0.0 0 1 379.30 279.49
  C 376.33 280.85 371.15 280.95 371.27 276.26
  Q 371.37 272.23 371.26 268.42
  A 0.79 0.79 0.0 0 0 370.59 267.66
  Q 369.58 267.50 369.13 266.59
  Q 368.80 265.93 369.30 265.40
  Q 369.88 264.77 370.73 264.66
  Q 371.29 264.59 371.29 264.04
  L 371.32 260.56
  Q 371.33 258.95 372.94 259.02
  L 373.45 259.04
  Q 375.28 259.12 375.28 260.95
  L 375.29 263.97
  A 0.66 0.66 0.0 0 0 376.05 264.62
  Q 377.32 264.44 378.25 265.23
  A 1.14 1.14 0.0 0 1 378.48 266.71
  Q 377.69 267.97 376.01 267.68
  Q 375.29 267.56 375.29 268.29
  Z"
/>
<path fill="#d92128" d="
  M 267.98 266.25
  A 0.32 0.32 0.0 0 0 268.57 266.38
  Q 269.84 264.45 272.14 264.27
  C 276.27 263.95 278.43 266.57 278.33 270.52
  Q 278.23 274.50 278.27 278.05
  Q 278.28 279.79 276.60 280.23
  Q 276.38 280.29 276.16 280.27
  Q 274.14 280.09 274.13 278.06
  L 274.10 269.80
  A 1.97 1.96 19.7 0 0 273.38 268.28
  Q 271.99 267.11 270.78 267.70
  Q 268.24 268.95 268.22 271.78
  L 268.18 278.01
  Q 268.17 279.72 266.53 280.20
  Q 265.62 280.47 264.63 279.59
  A 1.78 1.75 20.7 0 1 264.02 278.26
  L 264.03 266.05
  A 1.81 1.80 6.8 0 1 266.26 264.30
  Q 267.74 264.66 267.98 266.25
  Z"
/>
<path fill="#d92128" d="
  M 308.31 272.30
  A 8.09 8.09 0.0 0 1 300.22 280.39
  A 8.09 8.09 0.0 0 1 292.13 272.30
  A 8.09 8.09 0.0 0 1 300.22 264.21
  A 8.09 8.09 0.0 0 1 308.31 272.30
  Z
  M 300.2135 277.5099
  A 5.07 3.87 90.3 0 0 304.1099 272.4603
  A 5.07 3.87 90.3 0 0 300.2665 267.3701
  A 5.07 3.87 90.3 0 0 296.3701 272.4197
  A 5.07 3.87 90.3 0 0 300.2135 277.5099
  Z"
/>
<path fill="#d92128" d="
  M 316.54 265.83
  Q 318.69 262.84 322.41 265.43
  Q 323.55 266.23 322.74 267.35
  L 322.45 267.75
  Q 321.77 268.70 320.67 268.27
  C 314.80 266.00 316.02 275.32 315.99 278.08
  Q 315.97 279.73 314.39 280.20
  Q 314.07 280.29 313.75 280.22
  Q 311.90 279.81 311.90 277.92
  L 311.92 266.29
  A 2.07 2.06 -24.2 0 1 312.45 264.91
  C 313.47 263.80 315.39 264.10 315.73 265.66
  Q 315.94 266.67 316.54 265.83
  Z"
/>
<path fill="#d92128" d="
  M 329.56 266.03
  A 0.22 0.21 -25.0 0 0 329.93 266.16
  Q 333.35 262.82 337.42 265.28
  Q 337.85 265.54 338.05 266.00
  Q 338.18 266.30 338.48 266.41
  Q 338.95 266.59 339.25 266.18
  Q 340.50 264.48 342.44 264.34
  Q 348.21 263.93 348.39 269.69
  Q 348.51 273.76 348.42 277.95
  Q 348.37 280.09 346.24 280.26
  Q 345.99 280.28 345.74 280.21
  Q 344.04 279.70 344.04 277.92
  L 344.04 269.88
  Q 344.04 267.54 341.70 267.60
  Q 340.31 267.64 339.50 270.45
  Q 339.19 271.52 339.19 272.64
  L 339.18 278.27
  A 1.72 1.72 0.0 0 1 338.63 279.53
  Q 337.66 280.43 336.71 280.22
  Q 334.99 279.85 334.98 278.09
  L 334.89 269.67
  Q 334.87 268.05 333.29 267.64
  Q 332.69 267.49 332.09 267.65
  Q 330.02 268.20 330.01 270.34
  L 329.97 277.52
  Q 329.96 278.91 328.91 279.82
  Q 328.33 280.32 327.71 280.23
  Q 325.66 279.94 325.64 277.87
  Q 325.58 272.26 325.65 266.47
  C 325.69 263.69 329.29 263.47 329.56 266.03
  Z"
/>
<path fill="#d92128" d="
  M 361.98 278.74
  Q 358.24 281.22 354.35 279.60
  Q 352.57 278.85 352.12 277.14
  C 350.57 271.17 358.50 271.14 361.89 270.03
  Q 362.59 269.80 362.43 269.08
  C 361.68 265.91 357.41 267.12 356.06 269.09
  A 2.08 2.08 0.0 0 1 353.84 269.93
  Q 352.31 269.55 352.79 268.01
  C 354.30 263.10 364.66 262.84 366.18 267.40
  Q 366.75 269.08 366.65 270.76
  Q 366.40 274.92 367.23 278.48
  Q 367.35 279.03 367.00 279.48
  Q 366.20 280.47 364.99 280.16
  C 364.18 279.94 363.72 279.16 363.02 278.72
  Q 362.50 278.39 361.98 278.74
  Z
  M 362.57 274.47
  A 1.21 1.21 0.0 0 0 361.12 272.75
  L 357.06 274.09
  A 1.21 1.21 0.0 0 0 356.24 275.44
  L 356.46 276.70
  A 1.21 1.21 0.0 0 0 357.73 277.70
  L 360.28 277.53
  A 1.21 1.21 0.0 0 0 361.26 276.90
  L 362.57 274.47
  Z"
/>
<rect fill="#d92128" x="-2.03" y="-7.99" transform="translate(383.98,272.24) rotate(-0.1)" width="4.06" height="15.98" rx="1.97"/>
<path fill="#d92128" d="
  M 401.68 266.03
  C 402.13 263.26 405.51 263.98 405.52 266.31
  Q 405.56 275.40 405.50 284.34
  Q 405.49 286.25 403.58 286.27
  L 403.24 286.27
  A 1.55 1.55 0.0 0 1 401.68 284.74
  L 401.60 279.18
  Q 401.59 278.40 400.94 278.83
  C 397.29 281.27 391.92 280.61 390.63 275.86
  Q 389.61 272.10 390.72 268.72
  C 392.27 264.04 397.85 262.73 401.18 266.19
  Q 401.59 266.61 401.68 266.03
  Z
  M 397.8162 277.3999
  A 5.01 3.85 89.7 0 0 401.6399 272.3698
  A 5.01 3.85 89.7 0 0 397.7638 267.3801
  A 5.01 3.85 89.7 0 0 393.9401 272.4102
  A 5.01 3.85 89.7 0 0 397.8162 277.3999
  Z"
/>
<path fill="#d92128" d="
  M 420.06 278.53
  C 416.48 281.15 410.53 281.16 410.33 275.44
  Q 410.17 271.16 410.34 266.20
  Q 410.40 264.45 412.13 264.23
  Q 413.11 264.11 413.92 265.85
  A 1.19 1.06 34.6 0 1 414.02 266.26
  L 414.20 275.25
  A 2.02 2.01 9.7 0 0 415.51 277.09
  Q 416.48 277.46 417.42 277.25
  Q 420.32 276.58 420.34 273.61
  L 420.39 266.37
  Q 420.40 264.79 421.88 264.24
  Q 422.11 264.16 422.35 264.22
  Q 424.22 264.70 424.23 266.63
  L 424.23 278.43
  A 1.69 1.66 70.4 0 1 423.63 279.72
  Q 422.33 280.82 421.03 279.62
  A 0.51 0.51 0.0 0 1 420.88 279.16
  Q 420.93 278.93 420.84 278.74
  Q 420.58 278.15 420.06 278.53
  Z"
/>
<path fill="#d92128" d="
  M 433.92 273.31
  Q 431.76 273.32 432.77 275.22
  Q 432.94 275.55 433.18 276.01
  Q 434.22 277.98 436.44 277.79
  Q 438.87 277.60 440.72 275.41
  Q 441.70 274.25 442.74 275.36
  Q 443.48 276.14 442.38 277.77
  Q 441.65 278.85 440.46 279.38
  C 436.02 281.39 429.92 280.10 428.65 274.85
  C 425.70 262.61 443.27 260.10 443.24 271.43
  A 1.85 1.85 0.0 0 1 441.39 273.28
  L 433.92 273.31
  Z
  M 432.70 270.89
  L 439.28 270.91
  A 0.20 0.20 0.0 0 0 439.48 270.71
  L 439.48 270.60
  A 3.40 3.39 0.1 0 0 436.08 267.20
  L 435.90 267.20
  A 3.40 3.39 0.1 0 0 432.50 270.58
  L 432.50 270.69
  A 0.20 0.20 0.0 0 0 432.70 270.89
  Z"
/>
<path fill="#d92128" d="
  M 250.18 300.90
  L 250.11 308.20
  A 1.43 1.42 -19.7 0 1 249.60 309.27
  Q 248.72 310.01 247.87 309.79
  Q 245.99 309.30 246.00 307.36
  L 246.02 290.51
  Q 246.02 288.30 248.24 288.30
  L 258.72 288.30
  Q 259.99 288.30 260.60 289.41
  Q 260.76 289.69 260.71 289.99
  Q 260.40 291.73 258.63 291.72
  L 250.76 291.66
  Q 250.18 291.66 250.17 292.24
  L 250.15 296.68
  Q 250.15 297.21 250.68 297.21
  L 258.19 297.20
  A 0.90 0.89 66.9 0 1 258.81 297.45
  Q 259.59 298.24 259.31 298.98
  Q 258.81 300.24 257.46 300.24
  L 250.85 300.24
  Q 250.18 300.24 250.18 300.90
  Z"
/>
<ellipse fill="#d92128" cx="0.00" cy="0.00" transform="translate(335.50,290.05) rotate(-0.7)" rx="2.16" ry="1.92"/>
<path fill="#d92128" d="
  M 347.04 297.89
  L 347.11 305.79
  A 1.08 1.08 0.0 0 0 348.29 306.86
  L 350.21 306.69
  A 0.94 0.94 0.0 0 1 351.21 307.43
  Q 351.54 309.04 349.96 309.50
  C 347.83 310.11 343.33 310.07 343.11 306.99
  Q 342.83 302.90 343.03 297.93
  Q 343.06 297.32 342.46 297.19
  L 341.62 297.00
  Q 341.00 296.86 340.80 296.26
  Q 340.51 295.42 341.03 294.74
  A 1.20 1.19 -71.2 0 1 341.98 294.27
  Q 342.27 294.27 342.53 294.15
  Q 342.97 293.94 342.97 293.45
  L 342.99 290.24
  A 1.82 1.82 0.0 0 1 344.89 288.43
  Q 345.07 288.44 345.26 288.45
  Q 347.02 288.55 347.03 290.32
  L 347.04 293.25
  Q 347.05 294.50 348.27 294.22
  Q 349.30 293.98 349.92 294.68
  A 1.44 1.44 0.0 0 1 349.02 297.07
  L 347.61 297.24
  Q 347.04 297.31 347.04 297.89
  Z"
/>
<path fill="#d92128" d="
  M 278.43 301.86
  A 8.09 8.09 0.0 0 1 270.34 309.95
  A 8.09 8.09 0.0 0 1 262.25 301.86
  A 8.09 8.09 0.0 0 1 270.34 293.77
  A 8.09 8.09 0.0 0 1 278.43 301.86
  Z
  M 270.3233 307.0399
  A 5.10 3.88 90.3 0 0 274.2299 301.9603
  A 5.10 3.88 90.3 0 0 270.3767 296.8401
  A 5.10 3.88 90.3 0 0 266.4701 301.9197
  A 5.10 3.88 90.3 0 0 270.3233 307.0399
  Z"
/>
<path fill="#d92128" d="
  M 291.72 308.07
  C 290.71 308.66 289.69 309.45 288.51 309.66
  C 285.44 310.21 281.99 308.77 281.96 305.25
  Q 281.92 300.08 282.02 295.68
  Q 282.06 294.12 283.59 293.85
  Q 283.89 293.80 284.22 293.87
  Q 285.98 294.26 286.00 296.07
  L 286.10 304.25
  A 1.16 1.07 31.9 0 0 286.26 304.82
  Q 289.08 309.55 291.85 303.38
  A 2.05 2.04 57.3 0 0 292.03 302.54
  L 292.05 296.11
  A 2.27 2.27 0.0 0 1 292.54 294.70
  Q 293.37 293.65 294.24 293.81
  Q 296.13 294.17 296.15 296.11
  Q 296.20 301.68 296.17 307.70
  C 296.16 310.11 292.99 310.67 292.37 308.34
  Q 292.22 307.79 291.72 308.07
  Z"
/>
<path fill="#d92128" d="
  M 305.34 295.35
  L 305.79 294.81
  A 2.12 2.11 -80.5 0 1 306.68 294.17
  Q 309.45 293.14 311.28 295.19
  A 1.61 1.60 75.1 0 1 309.75 297.83
  L 308.09 297.47
  A 2.39 2.38 -79.4 0 0 305.24 299.43
  Q 304.64 303.18 304.95 307.52
  A 1.89 1.86 64.2 0 1 304.49 308.88
  Q 303.52 309.98 302.56 309.81
  Q 300.72 309.50 300.73 307.64
  L 300.74 295.80
  A 1.93 1.92 78.8 0 1 301.93 294.02
  Q 303.75 293.27 304.49 295.21
  Q 304.79 296.01 305.34 295.35
  Z"
/>
<path fill="#d92128" d="
  M 319.07 295.82
  L 320.04 294.84
  A 1.63 1.62 -78.9 0 1 320.60 294.46
  C 325.31 292.50 329.02 295.14 328.91 300.20
  Q 328.83 304.06 328.88 307.51
  Q 328.91 309.65 326.79 309.81
  Q 326.54 309.83 326.31 309.76
  Q 324.74 309.29 324.74 307.65
  L 324.73 300.03
  A 2.18 2.06 -62.4 0 0 324.41 298.90
  Q 322.94 296.56 321.55 297.05
  Q 318.77 298.04 318.77 300.99
  L 318.75 307.60
  Q 318.75 309.30 317.11 309.76
  Q 316.76 309.86 316.39 309.78
  Q 314.60 309.39 314.56 307.55
  Q 314.47 302.15 314.55 296.01
  C 314.59 293.32 318.09 293.00 318.41 295.60
  Q 318.51 296.39 319.07 295.82
  Z"
/>
<rect fill="#d92128" x="-2.10" y="-7.99" transform="translate(335.48,301.80) rotate(0.1)" width="4.20" height="15.98" rx="2.02"/>
<path fill="#d92128" d="
  M 363.24 308.01
  C 359.74 311.02 353.66 310.27 353.53 304.79
  Q 353.43 300.10 353.57 295.60
  A 1.69 1.67 -18.4 0 1 354.22 294.32
  Q 355.71 293.16 357.13 294.50
  A 1.92 1.91 21.7 0 1 357.74 295.90
  L 357.77 304.47
  A 2.19 2.17 -73.2 0 0 358.71 306.25
  Q 359.78 306.99 360.80 306.79
  Q 363.52 306.24 363.58 303.47
  L 363.76 295.49
  A 1.50 1.49 71.9 0 1 364.35 294.32
  Q 365.07 293.76 365.88 293.80
  A 2.00 2.00 0.0 0 1 367.79 295.81
  Q 367.78 301.33 367.85 307.69
  C 367.87 310.18 364.74 310.63 363.92 308.19
  Q 363.72 307.59 363.24 308.01
  Z"
/>
<path fill="#d92128" d="
  M 376.90 295.48
  Q 379.21 292.51 382.49 294.74
  C 383.59 295.49 383.47 297.05 382.39 297.75
  Q 382.02 297.99 381.58 297.90
  C 379.17 297.42 376.91 297.00 376.69 300.46
  Q 376.44 304.23 376.51 307.48
  Q 376.54 309.06 375.10 309.69
  Q 374.78 309.83 374.43 309.79
  Q 372.27 309.55 372.28 307.38
  L 372.31 295.82
  A 1.95 1.94 -10.2 0 1 373.58 294.00
  Q 375.60 293.25 376.15 295.33
  Q 376.37 296.16 376.90 295.48
  Z"
/>
<path fill="#d92128" d="
  M 389.73 302.82
  Q 388.83 302.79 389.05 303.66
  Q 390.15 307.90 393.83 307.19
  C 395.31 306.90 395.90 305.91 397.03 305.08
  Q 397.78 304.52 398.72 304.62
  Q 399.68 304.71 399.77 305.24
  Q 400.05 306.87 398.82 307.81
  Q 395.73 310.16 391.80 309.73
  Q 385.11 309.00 384.83 302.24
  C 384.40 291.95 399.01 290.73 400.08 300.31
  C 400.26 301.95 398.97 302.80 397.51 302.84
  Q 393.47 302.96 389.73 302.82
  Z
  M 389.38 300.47
  L 395.76 300.47
  A 0.22 0.22 0.0 0 0 395.98 300.25
  L 395.98 300.13
  A 3.34 3.33 -90.0 0 0 392.65 296.79
  L 392.49 296.79
  A 3.34 3.33 90.0 0 0 389.16 300.13
  L 389.16 300.25
  A 0.22 0.22 0.0 0 0 389.38 300.47
  Z"
/>
<path fill="#d92128" d="
  M 407.44 297.38
  A 1.08 1.07 26.4 0 0 408.03 299.11
  Q 411.32 299.89 414.24 301.17
  C 417.59 302.65 417.88 307.36 414.42 308.85
  Q 409.50 310.97 404.87 308.51
  Q 403.05 307.55 403.17 305.53
  A 1.65 1.64 33.3 0 1 406.28 304.89
  C 407.42 307.15 409.96 308.16 412.22 306.74
  A 0.97 0.95 79.7 0 0 412.65 306.11
  Q 413.01 304.00 410.75 303.52
  C 407.46 302.82 401.07 300.90 404.09 296.28
  C 406.20 293.06 412.80 293.01 415.32 295.99
  Q 416.08 296.88 415.79 298.00
  Q 415.61 298.76 415.10 298.87
  Q 413.27 299.29 412.23 297.82
  C 411.16 296.31 408.66 295.91 407.44 297.38
  Z"
/>
<path fill="#d92128" d="
  M 269.65 325.07
  Q 271.69 323.03 274.68 323.40
  C 280.51 324.11 281.03 329.91 280.05 334.59
  C 279.00 339.60 273.18 340.52 269.61 337.65
  Q 269.21 337.32 269.02 337.81
  C 268.43 339.34 266.56 339.91 265.50 338.51
  Q 265.04 337.91 265.04 336.66
  Q 265.05 327.93 265.13 319.72
  Q 265.15 317.85 267.00 317.64
  Q 267.28 317.61 267.55 317.68
  Q 269.01 318.05 269.00 319.55
  L 268.98 324.79
  Q 268.98 325.74 269.65 325.07
  Z
  M 276.4660 329.9377
  A 3.33 3.33 0.0 0 0 273.1711 326.5730
  L 272.6511 326.5675
  A 3.33 3.33 0.0 0 0 269.2864 329.8625
  L 269.2540 332.9623
  A 3.33 3.33 0.0 0 0 272.5489 336.3270
  L 273.0689 336.3325
  A 3.33 3.33 0.0 0 0 276.4336 333.0375
  L 276.4660 329.9377
  Z"
/>
<rect fill="#d92128" x="293.38" y="317.62" width="4.24" height="21.66" rx="2.07"/>
<ellipse fill="#d92128" cx="0.00" cy="0.00" transform="translate(286.63,319.66) rotate(1.5)" rx="2.14" ry="1.87"/>
<ellipse fill="#d92128" cx="0.00" cy="0.00" transform="translate(304.34,319.66) rotate(-2.9)" rx="2.13" ry="1.87"/>
<path fill="#d92128" d="
  M 225.01 324.29
  L 225.02 337.10
  Q 225.03 339.04 223.10 339.28
  Q 222.76 339.32 222.43 339.21
  Q 220.94 338.72 220.94 337.15
  L 220.94 319.49
  A 1.43 1.43 0.0 0 1 222.35 318.06
  L 226.09 318.00
  A 1.79 1.79 0.0 0 1 227.85 319.35
  L 230.85 331.26
  Q 231.09 332.21 231.35 331.27
  L 234.66 319.36
  A 1.68 1.67 -86.5 0 1 236.03 318.14
  Q 238.28 317.80 240.21 318.22
  A 1.60 1.58 -84.0 0 1 241.46 319.78
  L 241.48 336.89
  Q 241.48 338.86 239.56 339.32
  Q 238.97 339.46 238.42 338.85
  Q 237.50 337.81 237.51 336.42
  L 237.57 325.32
  Q 237.58 322.90 236.95 325.24
  Q 235.46 330.72 234.00 336.39
  C 233.53 338.22 232.73 339.64 230.66 339.27
  A 2.47 2.46 -1.0 0 1 228.68 337.37
  Q 227.24 330.69 225.47 324.22
  Q 225.01 322.51 225.01 324.29
  Z"
/>
<path fill="#d92128" d="
  M 261.39 331.35
  A 8.02 8.02 0.0 0 1 253.37 339.37
  A 8.02 8.02 0.0 0 1 245.35 331.35
  A 8.02 8.02 0.0 0 1 253.37 323.33
  A 8.02 8.02 0.0 0 1 261.39 331.35
  Z
  M 257.2420 330.1202
  A 3.52 3.52 0.0 0 0 253.7777 326.5453
  L 253.1778 326.5359
  A 3.52 3.52 0.0 0 0 249.6029 330.0002
  L 249.5580 332.8598
  A 3.52 3.52 0.0 0 0 253.0223 336.4347
  L 253.6222 336.4441
  A 3.52 3.52 0.0 0 0 257.1971 332.9798
  L 257.2420 330.1202
  Z"
/>
<rect fill="#d92128" x="-2.12" y="-7.96" transform="translate(286.62,331.31) rotate(-0.2)" width="4.24" height="15.92" rx="2.04"/>
<rect fill="#d92128" x="-2.11" y="-7.96" transform="translate(304.37,331.31) rotate(-0.2)" width="4.22" height="15.92" rx="2.04"/>
<path fill="#d92128" d="
  M 315.45 332.51
  Q 314.23 332.53 314.70 333.65
  Q 316.17 337.17 318.91 336.89
  C 320.49 336.72 321.14 335.86 322.25 334.88
  Q 323.01 334.23 324.00 334.13
  Q 326.03 333.95 324.74 336.48
  Q 324.33 337.29 323.58 337.81
  C 320.34 340.08 314.45 339.81 311.92 336.53
  Q 310.28 334.42 310.48 330.58
  C 310.92 322.09 322.15 320.60 325.39 328.20
  C 326.26 330.25 325.43 332.36 322.89 332.40
  Q 319.28 332.46 315.45 332.51
  Z
  M 314.91 329.99
  L 321.37 329.95
  A 0.21 0.21 0.0 0 0 321.58 329.74
  L 321.58 329.61
  A 3.36 3.34 89.6 0 0 318.22 326.27
  L 318.02 326.27
  A 3.36 3.34 89.6 0 0 314.70 329.65
  L 314.70 329.78
  A 0.21 0.21 0.0 0 0 314.91 329.99
  Z"
/>
<path fill="#d92128" d="
  M 334.04 324.99
  L 334.28 324.65
  Q 334.63 324.15 335.16 323.88
  Q 337.85 322.49 340.19 324.56
  A 1.34 1.33 -72.1 0 1 340.64 325.44
  Q 340.75 326.68 339.88 327.19
  Q 339.30 327.53 338.58 327.30
  C 336.03 326.49 334.01 326.96 333.84 330.05
  Q 333.65 333.49 333.71 336.81
  Q 333.75 338.86 331.75 339.30
  Q 331.54 339.35 331.33 339.30
  Q 329.94 338.94 329.91 337.50
  Q 329.80 331.60 329.93 325.15
  Q 329.96 323.49 331.56 323.30
  Q 332.19 323.22 332.66 323.67
  Q 333.18 324.15 333.27 324.81
  Q 333.42 325.87 334.04 324.99
  Z"
/>
</svg>
