<svg width="19980" height="11037" viewBox="0 0 19980 11037" fill="none" xmlns="http://www.w3.org/2000/svg">
<path d="M11134.9 0.163915L11120 0.111831C10988.7 -0.34645 10882 105.712 10881.5 236.999L10857.3 7171.14C10856.8 7302.42 10962.9 7409.23 11094.2 7409.68L11109.1 7409.74C11240.3 7410.19 11347.1 7304.14 11347.6 7172.85L11371.8 238.71C11372.3 107.423 11266.2 0.622196 11134.9 0.163915Z" fill="white"/>
<path d="M2349.43 5693.48C2097.83 5594.46 1928.3 5486.62 1723.83 5353.01C1589.22 5264.84 1484.11 5155.31 1367.12 5049.17C1233.87 4928.1 1117.23 4769.06 1013.47 4627.99C948.139 4539.14 875.577 4414.46 795.781 4253.95C604.09 3868.72 504.176 3476.7 496.038 3077.9C491.065 2832.16 503.498 2619.54 533.336 2440.03C586.232 2123.3 708.3 1822.85 858.51 1534.94C907.111 1442.02 964.641 1349.45 1031.1 1257.21C1396.17 749.442 1870.31 389.304 2453.52 176.793C2915.68 8.25401 3396.49 -20.2315 3875.27 36.7395C3999.82 51.6605 4122.34 76.3027 4242.83 110.666C4457.8 172.046 4633.1 256.146 4825.7 348.384C4898.26 382.974 4968 421.972 5034.91 465.378C5391.62 696.201 5690.57 992.247 5931.77 1353.51C6016.87 1481.36 6075.19 1617.34 6144.03 1752.31C6338.66 2134.49 5798.51 2319.31 5686.27 1965.95C5633.38 1799.79 5517.75 1645.15 5417.05 1501.71C5364.83 1427.55 5307.19 1357.13 5244.12 1290.44C5129.06 1168.81 5040.56 1086.29 4978.62 1042.89C4863.34 961.5 4743.19 881.244 4618.19 802.117C4533.64 748.537 4373.49 685.462 4137.71 612.892C3653.06 463.909 3171.8 470.126 2693.93 631.543C2568.13 673.933 2434.54 719.713 2319.25 781.092C1859.24 1025.93 1505.24 1382.23 1257.26 1849.98C1220.3 1919.49 1189.11 2009.36 1160.29 2085.32C964.98 2597.15 941.132 3107.29 1088.74 3615.74C1167.07 3884.99 1286.76 4176.29 1464.1 4386.2C1527.17 4460.81 1572.6 4547.28 1642.79 4616.12C1761.92 4733.45 1884.55 4842.08 2010.69 4942.01C2090.37 5005.42 2189.38 5050.86 2278.56 5102.41C2827.19 5417.44 3476.18 5466.28 4087.19 5322.15C4375.41 5253.99 4543.59 5585.98 4311.32 5759.27C4283.74 5779.84 4242.6 5797.14 4187.9 5811.15C3567.61 5970.99 2954.79 5931.77 2349.43 5693.48Z" fill="#D92128"/>
<path d="M15701.6 5346.57C15701.6 5879.54 15489.9 6390.69 15113 6767.56C14736.2 7144.43 14225.1 7356.15 13692.2 7356.15C13159.3 7356.15 12648.2 7144.43 12271.4 6767.56C11894.5 6390.69 11682.8 5879.54 11682.8 5346.57C11682.8 4813.59 11894.5 4302.45 12271.4 3925.58C12648.2 3548.71 13159.3 3336.99 13692.2 3336.99C14225.1 3336.99 14736.2 3548.71 15113 3925.58C15489.9 4302.45 15701.6 4813.59 15701.6 5346.57ZM15216.7 5346.23C15216.7 4941.69 15056 4553.71 14770 4267.66C14483.9 3981.6 14096 3820.9 13691.5 3820.9C13287 3820.9 12899.1 3981.6 12613.1 4267.66C12327 4553.71 12166.4 4941.69 12166.4 5346.23C12166.4 5546.54 12205.8 5744.89 12282.5 5929.95C12359.1 6115.01 12471.4 6283.16 12613.1 6424.8C12754.7 6566.44 12922.8 6678.8 13107.9 6755.45C13292.9 6832.11 13491.2 6871.56 13691.5 6871.56C13891.8 6871.56 14090.1 6832.11 14275.2 6755.45C14460.2 6678.8 14628.3 6566.44 14770 6424.8C14911.6 6283.16 15023.9 6115.01 15100.6 5929.95C15177.2 5744.89 15216.7 5546.54 15216.7 5346.23Z" fill="white"/>
<path d="M9949.48 4063.37C9952.87 3930.21 9953.77 3796.82 9952.19 3663.21C9951.29 3584.76 9965.3 3523.95 9994.24 3480.77C10133.6 3271.88 10446.9 3372.25 10444.2 3631C10432.2 4787.15 10422 5965.45 10413.7 7165.91C10412.7 7339.88 10229.9 7445.34 10079 7383.62C9895.22 7308.34 9922.01 7157.09 9924.05 7000.76C9925.4 6900.39 9926.87 6799.9 9928.46 6699.29C9929.13 6658.6 9916.47 6653.96 9890.48 6685.39C9555.47 7093.34 9007.86 7340.89 8504.67 7357.85C8309.14 7364.18 8130.11 7352.2 7967.58 7321.9C7702.42 7272.39 7470.49 7151.33 7239.92 7006.87C7095.81 6916.32 6967.3 6776.61 6849.64 6651.14C6777.76 6574.72 6699.55 6458.52 6615 6302.53C6296.95 5716.54 6287.46 4975.58 6624.5 4398.75C6678.41 4307.19 6729.27 4206.13 6796.07 4126.44C6884.46 4020.86 6983.81 3919.24 7094.12 3821.58C7182.73 3742.9 7306.83 3660.61 7466.42 3574.7C7737.46 3428.66 8035.05 3354.62 8359.21 3352.59C8629.11 3351 8864.55 3388.64 9065.51 3465.51C9417.69 3600.25 9706.02 3801.8 9930.49 4070.15C9942.7 4084.62 9949.03 4082.36 9949.48 4063.37ZM9913.2 5357.76C9913.2 5157.45 9873.75 4959.1 9797.1 4774.04C9720.45 4588.98 9608.11 4420.83 9466.49 4279.19C9324.86 4137.55 9156.73 4025.19 8971.69 3948.54C8786.65 3871.88 8588.32 3832.43 8388.03 3832.43C7983.53 3832.43 7595.6 3993.13 7309.58 4279.19C7023.55 4565.24 6862.87 4953.22 6862.87 5357.76C6862.87 5762.3 7023.55 6150.28 7309.58 6436.33C7595.6 6722.39 7983.53 6883.09 8388.03 6883.09C8588.32 6883.09 8786.65 6843.64 8971.69 6766.98C9156.73 6690.33 9324.86 6577.97 9466.49 6436.33C9608.11 6294.69 9720.45 6126.54 9797.1 5941.48C9873.75 5756.42 9913.2 5558.07 9913.2 5357.76Z" fill="white"/>
<path d="M16478 4006.4C16595 3892.45 16709.3 3774.1 16850.4 3687.63C17165 3495.01 17472.2 3368.18 17846.9 3356.65C18078.8 3349.53 18318.2 3356.99 18537.9 3429.56C19277.8 3674.4 19808.5 4238.01 19943.1 5003.73C19967.9 5145.93 19980 5304.97 19979.3 5480.86C19977.1 6048.53 19976.7 6624.23 19978.3 7207.96C19978.6 7254.76 19964.2 7294.66 19935.3 7327.67C19815.2 7465.35 19687.2 7473.6 19551.1 7352.42C19512.7 7318.28 19493.4 7275.44 19493.4 7223.9C19493.9 6638.14 19493.5 5998.12 19492.1 5303.84C19491.1 4816.87 19212.7 4368.91 18821.1 4092.19C18705.4 4010.13 18562.7 3952.82 18430.1 3908.05C18105.3 3798.52 17704.8 3802.25 17381.3 3955.87C17309.8 3989.78 17229.8 4011.82 17164.3 4055.57C17042.9 4136.95 16923.8 4239.59 16806.9 4363.48C16717.1 4458.77 16648.9 4593.06 16586.9 4712.09C16483.8 4908.77 16443.1 5123.09 16441.8 5349.62C16438.4 5907.35 16433.5 6510.4 16427.2 7158.79C16424.1 7496.21 15931.8 7480.61 15950.1 7133.69C15951 7113.12 15951.6 7092.77 15951.8 7072.65C15958.8 5945.44 15967.6 4817.55 15978.2 3688.99C15979.2 3592.68 15993.2 3521.12 16020.3 3474.33C16067.3 3392.71 16147.7 3358.69 16261.4 3372.25C16398.7 3388.53 16462.8 3527.23 16459.1 3655.07C16455.7 3773.76 16454.7 3887.82 16456 3997.24C16456.2 4017.59 16463.6 4020.64 16478 4006.4Z" fill="white"/>
<path d="M101.015 8677.68C195.73 8606.24 300.391 8606.57 414.999 8678.69C496.716 8730.58 505.532 8838.08 548.595 8920.14C858.736 9513.14 1305.64 9956.13 1889.3 10249.1C1957.57 10283.3 2025.04 10310.8 2091.73 10331.9C2187.35 10362 2277.54 10405.1 2375.54 10431.6C3080.59 10622.8 3769.03 10561.1 4440.85 10246.4C4579.87 10181.3 4710.07 10091.4 4842.31 10009.7C4984.39 9922.22 5101.03 9799.8 5224.11 9688.91C5329.91 9593.28 5403.82 9478.32 5496.39 9372.52C5533.46 9330.24 5566.81 9285.48 5596.42 9238.23C5716.68 9046.52 5820.66 8839.21 5908.37 8616.3C5984.1 8422.78 6033.6 8202.35 6056.89 7955.03C6103 7459.24 6052.82 6945.49 5842.93 6489.72C5767.31 6325.59 5683.56 6150.94 5578.45 5999.36C5284.47 5577.17 4861.3 5194.99 4383.21 4992.54C4281.82 4949.47 4186.88 4905.04 4084.48 4871.47C3524.33 4686.54 2962.48 4670.72 2398.93 4824C2065.62 4914.54 1932.36 4426.22 2258.89 4342.8C2724.33 4223.43 3162.31 4191.66 3572.81 4247.5C3722.46 4267.85 3874.48 4295.88 4028.87 4331.6C4360.49 4408.24 4692.1 4563.9 4965.4 4730.74C5314.42 4943.93 5629.99 5233.98 5912.1 5600.9C5976.75 5684.78 6031.68 5767.07 6076.89 5847.78C6141.65 5964.43 6212.52 6072.27 6267.11 6194.69C6602.57 6947.07 6669.93 7713.35 6469.2 8493.54C6438.68 8610.87 6392.23 8731.59 6356.97 8852.32C6343.63 8897.53 6325.89 8943.54 6303.73 8990.34C6219.87 9165.77 6126.62 9335.78 6023.99 9500.36C5970.42 9586.27 5912.33 9665.74 5849.71 9738.76C5764.26 9837.78 5688.99 9947.31 5591.67 10034.5C5467.57 10146 5354.66 10265.4 5216.32 10357.3C5113.58 10425.8 5017.96 10506.2 4912.5 10565.9C4706.8 10681.6 4490.35 10780.7 4263.17 10863.3C4063.12 10935.8 3843.4 10985.6 3604.01 11012.5C3270.58 11050 2935.92 11044.2 2600.01 10995.2C2231.77 10941.6 1891 10812.7 1563.45 10645.2C1398.88 10560.9 1209 10434.7 993.802 10266.8C934.803 10220.9 879.081 10170 826.637 10114.2C755.431 10038.9 671.34 9978.85 604.882 9897.12C520.113 9792.68 439.3 9687.67 362.442 9582.09C217.77 9382.46 103.388 9171.88 19.2974 8950.32C-22.2959 8841.13 4.94322 8750.25 101.015 8677.68Z" fill="#D92128"/>
<path d="M7331.47 7977.75H7326.73C7285.53 7977.75 7252.13 8011.15 7252.13 8052.35V8639.69C7252.13 8680.9 7285.53 8714.3 7326.73 8714.3H7331.47C7372.67 8714.3 7406.07 8680.9 7406.07 8639.69V8052.35C7406.07 8011.15 7372.67 7977.75 7331.47 7977.75Z" fill="#D92128"/>
<path d="M8379.56 8314.83L8379.22 8643.09C8379.22 8655.37 8376.03 8667.43 8369.97 8678.07C8363.9 8688.72 8355.17 8697.58 8344.63 8703.79C8330.16 8712.61 8316.6 8716.11 8303.94 8714.3C8258.96 8708.42 8236.35 8682.65 8236.13 8636.98V8314.49C8236.13 8297.98 8227.88 8289.96 8211.37 8290.41C8188.77 8291.31 8168.31 8285.1 8150 8271.76C8136.44 8261.81 8131.47 8248.81 8135.08 8232.76C8142.99 8196.14 8169.22 8180.54 8213.75 8185.96C8216.96 8186.34 8220.21 8185.99 8223.26 8184.94C8226.32 8183.88 8229.09 8182.14 8231.38 8179.85C8233.66 8177.57 8235.4 8174.79 8236.46 8171.74C8237.51 8168.69 8237.86 8165.43 8237.48 8162.22C8233.64 8128.99 8236.69 8095.08 8246.64 8060.49C8275.46 7959.77 8441.61 7968.59 8511.12 7998.09C8515.4 7999.97 8519.15 8002.86 8522.05 8006.53C8524.95 8010.2 8526.9 8014.52 8527.73 8019.12C8532.25 8046.02 8522.31 8064.45 8497.89 8074.39C8471.45 8085.25 8441.61 8064.9 8409.05 8074.39C8402.42 8076.3 8396.49 8080.16 8392.02 8085.47C8387.56 8090.78 8384.75 8097.31 8383.96 8104.24L8377.52 8162.22C8375.71 8176.92 8382.16 8184.04 8396.85 8183.59C8415.16 8183.14 8433.13 8186.53 8450.76 8193.76C8459.52 8197.27 8467.06 8203.26 8472.47 8210.99C8477.88 8218.73 8480.91 8227.87 8481.2 8237.3C8481.48 8246.73 8479.01 8256.04 8474.09 8264.09C8469.17 8272.14 8462 8278.57 8453.47 8282.61C8439.23 8289.39 8424.09 8291.77 8408.04 8289.73C8389.05 8287.24 8379.56 8295.61 8379.56 8314.83Z" fill="#D92128"/>
<path d="M11643.8 8116.1C11681.1 8116.1 11711.3 8085.89 11711.3 8048.62C11711.3 8011.35 11681.1 7981.14 11643.8 7981.14C11606.6 7981.14 11576.4 8011.35 11576.4 8048.62C11576.4 8085.89 11606.6 8116.1 11643.8 8116.1Z" fill="#D92128"/>
<path d="M11349.2 8309.06L11350.5 8570.85C11350.6 8578.66 11352.6 8586.33 11356.4 8593.17C11360.1 8600.01 11365.5 8605.8 11372 8610.01C11378.6 8614.23 11386.1 8616.73 11393.8 8617.29C11401.5 8617.86 11409.3 8616.47 11416.3 8613.24C11447.5 8598.77 11474.4 8603.3 11497 8626.81C11501.3 8631.26 11504.5 8636.69 11506.3 8642.62C11508 8648.56 11508.3 8654.83 11507.2 8660.91C11506 8667 11503.4 8672.71 11499.6 8677.57C11495.7 8682.44 11490.8 8686.31 11485.2 8688.87C11384.4 8734.98 11208.8 8738.38 11212.9 8579.33C11215.1 8488.22 11215 8399.6 11212.5 8313.47C11212.4 8307.19 11210 8301.17 11205.9 8296.46C11201.7 8291.75 11196 8288.65 11189.8 8287.7C11167 8284.08 11150.5 8271.98 11140.3 8251.41C11132.9 8236.49 11134.8 8223.04 11146.1 8211.06C11159.2 8196.81 11175.4 8188.45 11194.6 8185.96C11207.2 8184.38 11213.6 8177.37 11213.6 8164.94L11214.6 8046.92C11214.8 8010.53 11233.1 7993.12 11269.5 7994.7L11286.8 7995.38C11328.2 7997.19 11348.8 8018.78 11348.8 8060.15L11349.2 8162.56C11349.2 8165.78 11349.9 8168.96 11351.3 8171.88C11352.6 8174.8 11354.6 8177.4 11357 8179.49C11359.5 8181.58 11362.3 8183.12 11365.4 8184.01C11368.5 8184.89 11371.8 8185.09 11375 8184.6C11403.7 8180.54 11428.5 8187.43 11449.5 8205.29C11456.7 8211.3 11461.4 8219.7 11462.8 8228.92C11464.3 8238.15 11462.3 8247.58 11457.3 8255.48C11439.5 8283.96 11411.6 8294.93 11373.6 8288.37C11357.3 8285.66 11349.2 8292.56 11349.2 8309.06Z" fill="#D92128"/>
<path d="M7710.56 8239.88C7710.83 8242.11 7711.78 8244.21 7713.29 8245.88C7714.81 8247.54 7716.8 8248.7 7719 8249.18C7721.19 8249.67 7723.49 8249.46 7725.56 8248.58C7727.63 8247.7 7729.38 8246.2 7730.56 8244.29C7759.27 8200.66 7799.62 8176.8 7851.61 8172.74C7991.65 8161.88 8064.89 8250.73 8061.5 8384.68C8059.24 8474.66 8058.56 8559.78 8059.47 8640.03C8059.69 8679.37 8040.82 8704.01 8002.84 8713.96C7997.87 8715.32 7992.9 8715.77 7987.92 8715.32C7942.26 8711.25 7919.32 8686.27 7919.09 8640.37L7918.07 8360.26C7918.08 8350.42 7915.89 8340.69 7911.67 8331.78C7907.45 8322.86 7901.3 8314.99 7893.66 8308.72C7862.24 8282.27 7832.85 8275.71 7805.5 8289.05C7748.08 8317.31 7719.15 8363.43 7718.7 8427.41L7717.34 8638.68C7717.11 8677.34 7698.46 8702.09 7661.39 8712.94C7640.82 8719.05 7619.35 8712.15 7596.97 8692.26C7590.47 8686.6 7585.26 8679.65 7581.69 8671.87C7578.13 8664.09 7576.28 8655.66 7576.28 8647.16L7576.62 8233.1C7576.61 8223.87 7578.71 8214.76 7582.74 8206.46C7586.78 8198.16 7592.66 8190.88 7599.94 8185.17C7607.22 8179.46 7615.71 8175.46 7624.76 8173.48C7633.82 8171.51 7643.21 8171.6 7652.24 8173.75C7685.69 8181.89 7705.13 8203.93 7710.56 8239.88Z" fill="#D92128"/>
<path d="M9078.05 8445.04C9078.05 8517.8 9049.15 8587.59 8997.71 8639.03C8946.26 8690.48 8876.49 8719.39 8803.74 8719.39C8730.99 8719.39 8661.22 8690.48 8609.77 8639.03C8558.33 8587.59 8529.43 8517.8 8529.43 8445.04C8529.43 8372.28 8558.33 8302.5 8609.77 8251.05C8661.22 8199.61 8730.99 8170.7 8803.74 8170.7C8876.49 8170.7 8946.26 8199.61 8997.71 8251.05C9049.15 8302.5 9078.05 8372.28 9078.05 8445.04ZM8803.52 8621.72C8838.32 8621.9 8871.79 8603.96 8896.57 8571.85C8921.34 8539.73 8935.4 8496.08 8935.64 8450.48C8935.75 8427.9 8932.48 8405.53 8925.99 8384.63C8919.51 8363.74 8909.94 8344.74 8897.84 8328.71C8885.74 8312.68 8871.34 8299.94 8855.46 8291.22C8839.59 8282.49 8822.55 8277.95 8805.32 8277.86C8770.52 8277.68 8737.05 8295.62 8712.27 8327.74C8687.49 8359.85 8673.44 8403.51 8673.2 8449.1C8673.08 8471.68 8676.36 8494.06 8682.84 8514.95C8689.33 8535.84 8698.89 8554.85 8711 8570.88C8723.1 8586.9 8737.5 8599.64 8753.37 8608.37C8769.25 8617.09 8786.29 8621.63 8803.52 8621.72Z" fill="#D92128"/>
<path d="M9357.11 8225.64C9405.71 8158.04 9472.06 8153.52 9556.15 8212.07C9581.92 8230.16 9585.65 8251.86 9567.34 8277.18L9557.51 8290.75C9542.13 8312.23 9522.02 8318.1 9497.15 8308.38C9298.11 8231.4 9339.48 8547.46 9338.46 8641.05C9338.01 8678.35 9319.93 8702.32 9284.21 8712.94C9276.98 8714.98 9269.74 8715.2 9262.51 8713.62C9220.69 8704.35 9199.78 8678.35 9199.78 8635.63L9200.46 8241.24C9200.46 8223.98 9206.86 8207.31 9218.43 8194.44C9253.02 8156.8 9318.12 8166.97 9329.65 8219.87C9334.39 8242.71 9343.55 8244.63 9357.11 8225.64Z" fill="#D92128"/>
<path d="M9798.59 8232.42C9798.65 8233.8 9799.12 8235.12 9799.95 8236.22C9800.78 8237.32 9801.92 8238.15 9803.25 8238.62C9804.57 8239.09 9806.02 8239.16 9807.42 8238.85C9808.82 8238.53 9810.11 8237.83 9811.13 8236.83C9888.44 8161.32 9973.1 8151.37 10065.1 8206.99C10074.8 8212.87 10081.9 8221 10086.5 8231.4C10089.4 8238.19 10094.3 8242.82 10101 8245.31C10111.7 8249.38 10120.4 8246.78 10127.2 8237.51C10155.4 8199.07 10191.5 8178.28 10235.3 8175.11C10365.7 8165.84 10433 8226.32 10437.1 8356.54C10439.8 8448.55 10440.1 8541.92 10438.1 8636.64C10437 8685.02 10412.3 8711.14 10364.2 8714.98C10358.5 8715.43 10352.9 8714.86 10347.2 8713.28C10308.8 8701.75 10289.6 8675.87 10289.6 8635.63V8362.98C10289.6 8310.08 10263.1 8284.31 10210.2 8285.66C10178.8 8286.57 10153.9 8318.78 10135.6 8382.31C10128.6 8406.5 10125.1 8431.25 10125.1 8456.58L10124.8 8647.5C10124.8 8655.52 10123.1 8663.45 10119.9 8670.8C10116.7 8678.16 10112 8684.77 10106.1 8690.22C10084.2 8710.57 10062.5 8718.37 10041 8713.62C10002.1 8705.26 9982.59 8681.18 9982.37 8641.39L9979.32 8355.86C9978.86 8319.23 9960.78 8296.29 9925.06 8287.02C9911.5 8283.63 9897.94 8283.74 9884.38 8287.36C9837.58 8299.79 9814.07 8330.2 9813.85 8378.58L9812.49 8622.06C9812.26 8653.49 9800.28 8679.48 9776.55 8700.06C9763.44 8711.36 9749.87 8716 9735.86 8713.96C9689.52 8707.41 9666.12 8680.73 9665.67 8633.93C9664.31 8507.1 9664.43 8378.24 9666.01 8247.34C9667.37 8153.07 9789.43 8145.61 9798.59 8232.42Z" fill="#D92128"/>
<path d="M10897.9 8663.43C10813.3 8719.5 10727.1 8729.22 10639.2 8692.6C10598.9 8675.64 10573.7 8647.83 10563.5 8609.18C10511 8406.73 10779.9 8405.71 10894.8 8368.07C10910.6 8362.87 10916.7 8352.13 10913.1 8335.85C10887.7 8228.35 10742.9 8269.38 10697.1 8336.19C10689 8348.05 10677.4 8357.13 10664 8362.22C10650.5 8367.32 10635.8 8368.17 10621.9 8364.67C10587.3 8356.08 10575.4 8334.38 10586.3 8299.57C10637.5 8133.06 10988.7 8124.24 11040.3 8278.88C11053.2 8316.86 11058.5 8354.84 11056.2 8392.82C11050.6 8486.87 11057.1 8574.13 11075.9 8654.62C11078.6 8667.05 11076 8678.35 11068.1 8688.53C11050 8710.91 11027.3 8718.6 10999.9 8711.59C10972.5 8704.13 10956.9 8677.68 10933.1 8662.75C10921.4 8655.29 10909.6 8655.52 10897.9 8663.43ZM10917.9 8518.63C10921.8 8511.39 10923.4 8503.14 10922.5 8494.97C10921.7 8486.79 10918.4 8479.05 10913.1 8472.77C10907.8 8466.48 10900.7 8461.93 10892.8 8459.71C10884.9 8457.49 10876.5 8457.7 10868.7 8460.3L10731 8505.75C10721.7 8508.78 10713.7 8515.07 10708.6 8523.47C10703.5 8531.87 10701.6 8541.83 10703.2 8551.53L10710.7 8594.25C10712.4 8604.22 10717.8 8613.2 10725.7 8619.46C10733.7 8625.72 10743.7 8628.82 10753.8 8628.17L10840.2 8622.4C10847.1 8621.92 10853.8 8619.72 10859.6 8615.98C10865.4 8612.25 10870.2 8607.11 10873.5 8601.04L10917.9 8518.63Z" fill="#D92128"/>
<path d="M11645.4 8172.06L11641.3 8172.06C11604.4 8172.13 11574.6 8202.09 11574.7 8238.98L11575.4 8647.28C11575.4 8684.17 11605.4 8714.03 11642.3 8713.96L11646.3 8713.96C11683.2 8713.89 11713.1 8683.93 11713 8647.04L11712.3 8238.74C11712.3 8201.85 11682.3 8171.99 11645.4 8172.06Z" fill="#D92128"/>
<path d="M12244 8232.42C12259.3 8138.49 12373.9 8162.9 12374.2 8241.92C12375.1 8447.42 12374.9 8651.22 12373.5 8853.33C12373.3 8896.52 12351.6 8918.33 12308.4 8918.78H12296.9C12283 8918.87 12269.7 8913.47 12259.8 8903.75C12249.8 8894.03 12244.2 8880.78 12244 8866.9L12241.3 8678.35C12241.1 8660.72 12233.6 8656.76 12218.9 8666.48C12095.2 8749.23 11913.1 8726.85 11869.3 8565.77C11846.3 8480.76 11847.3 8400.05 11872.4 8323.64C11924.9 8164.94 12114.1 8120.51 12227 8237.85C12236.3 8247.34 12242 8245.53 12244 8232.42ZM12113 8617.99C12147.6 8617.81 12180.7 8599.73 12205 8567.74C12229.4 8535.75 12242.9 8492.47 12242.6 8447.41C12242.4 8402.35 12228.4 8359.21 12203.8 8327.48C12179.1 8295.75 12145.8 8278.02 12111.2 8278.2C12076.6 8278.38 12043.5 8296.46 12019.2 8328.45C11994.9 8360.44 11981.3 8403.72 11981.6 8448.78C11981.8 8493.84 11995.8 8536.98 12020.4 8568.71C12045.1 8600.44 12078.4 8618.17 12113 8617.99Z" fill="#D92128"/>
<path d="M12867.2 8656.31C12745.8 8745.16 12544.1 8745.5 12537.3 8551.52C12533.7 8454.76 12533.8 8350.32 12537.6 8238.18C12539 8198.62 12559.2 8176.35 12598.3 8171.38C12620.5 8168.67 12640.7 8186.98 12659 8226.32C12661 8230.8 12662.2 8235.51 12662.4 8240.22L12668.5 8545.08C12668.8 8558.7 12673.2 8571.92 12681.1 8583.04C12689.1 8594.16 12700.1 8602.67 12712.9 8607.48C12734.9 8615.84 12756.5 8617.65 12777.7 8612.9C12843.3 8597.76 12876.3 8556.61 12876.7 8489.47L12878.4 8243.95C12878.6 8208.23 12895.5 8184.15 12928.9 8171.72C12934.1 8169.91 12939.4 8169.68 12944.9 8171.04C12987.1 8181.89 13008.4 8209.13 13008.6 8252.77V8652.92C13008.6 8661.31 13006.8 8669.59 13003.3 8677.15C12999.8 8684.71 12994.6 8691.37 12988.3 8696.67C12958.9 8721.53 12929.5 8720.4 12900.1 8693.27C12898 8691.3 12896.5 8688.84 12895.6 8686.12C12894.7 8683.39 12894.5 8680.49 12895 8677.67C12896.2 8672.48 12895.7 8667.73 12893.7 8663.43C12887.8 8650.09 12879 8647.72 12867.2 8656.31Z" fill="#D92128"/>
<path d="M13337.2 8479.29C13288.4 8479.52 13275.4 8501.11 13298.2 8544.07C13302 8551.53 13306.7 8560.46 13312.1 8570.86C13335.6 8615.39 13372.4 8635.51 13422.6 8631.22C13477.6 8626.92 13525.9 8600.02 13567.8 8550.51C13589.9 8524.28 13612.7 8523.72 13636.2 8548.81C13653 8566.45 13648.9 8593.69 13624 8630.54C13607.5 8654.96 13585.8 8673.15 13558.9 8685.14C13408.4 8753.3 13201.6 8709.55 13158.5 8531.52C13058.5 8116.44 13654.2 8031.33 13653.2 8415.54C13653.2 8432.18 13646.6 8448.14 13634.8 8459.9C13623.1 8471.67 13607.1 8478.28 13590.5 8478.28L13337.2 8479.29ZM13295.8 8397.23L13518.9 8397.91C13519.8 8397.91 13520.7 8397.73 13521.5 8397.39C13522.3 8397.05 13523.1 8396.55 13523.7 8395.92C13524.4 8395.29 13524.9 8394.54 13525.2 8393.72C13525.5 8392.9 13525.7 8392.02 13525.7 8391.12V8387.4C13525.8 8372.27 13522.8 8357.29 13517 8343.3C13511.3 8329.31 13502.8 8316.6 13492.1 8305.89C13481.4 8295.18 13468.6 8286.68 13454.6 8280.88C13440.6 8275.08 13425.6 8272.1 13410.4 8272.1H13404.3C13373.8 8272.1 13344.5 8284.16 13322.9 8305.65C13301.3 8327.13 13289.1 8356.29 13289 8386.72V8390.45C13289 8392.25 13289.8 8393.97 13291 8395.24C13292.3 8396.52 13294 8397.23 13295.8 8397.23Z" fill="#D92128"/>
<path d="M7107 9414.91L7104.63 9662.46C7104.53 9669.38 7102.93 9676.2 7099.95 9682.46C7096.96 9688.72 7092.66 9694.27 7087.34 9698.74C7067.44 9715.47 7047.89 9721.35 7028.68 9716.38C6986.18 9705.3 6965.04 9677.83 6965.27 9633.97L6965.95 9062.57C6965.95 9012.61 6991.04 8987.62 7041.22 8987.62H7396.57C7425.28 8987.62 7446.53 9000.17 7460.32 9025.27C7463.94 9031.6 7465.18 9038.15 7464.05 9044.93C7457.04 9084.27 7433.53 9103.83 7393.52 9103.6L7126.67 9101.57C7113.56 9101.57 7106.89 9108.12 7106.66 9121.24L7105.99 9271.8C7105.99 9283.78 7111.98 9289.77 7123.96 9289.77L7378.6 9289.44C7386.41 9289.43 7393.95 9292.47 7399.63 9297.91C7417.26 9315.77 7422.91 9333.07 7416.58 9349.8C7405.28 9378.28 7384.37 9392.53 7353.85 9392.53H7129.72C7114.58 9392.53 7107 9399.99 7107 9414.91Z" fill="#D92128"/>
<path d="M10000.8 9112.07C10041.2 9111.58 10073.7 9082.03 10073.2 9046.07C10072.8 9010.12 10039.7 8981.37 9999.2 8981.86C9958.76 8982.36 9926.33 9011.91 9926.76 9047.86C9927.2 9083.82 9960.35 9112.57 10000.8 9112.07Z" fill="#D92128"/>
<path d="M10391.3 9312.83L10393.7 9580.73C10393.7 9585.81 10394.8 9590.83 10396.8 9595.47C10398.9 9600.11 10401.9 9604.27 10405.7 9607.68C10409.5 9611.09 10413.9 9613.69 10418.7 9615.29C10423.5 9616.9 10428.6 9617.49 10433.7 9617.02L10498.8 9611.25C10506.5 9610.59 10514.2 9612.77 10520.5 9617.39C10526.7 9622.01 10531.1 9628.75 10532.7 9636.35C10540.1 9672.75 10526 9696.14 10490.3 9706.54C10418.1 9727.23 10265.5 9725.87 10258 9621.43C10251.7 9528.96 10250.8 9426.55 10255.3 9314.19C10256 9300.4 10249.6 9292.03 10236 9289.1L10207.5 9282.65C10193.5 9279.49 10184.2 9271.12 10179.7 9257.56C10173.2 9238.57 10175.8 9221.39 10187.5 9206.01C10191.3 9201.05 10196.2 9197.03 10201.8 9194.26C10207.4 9191.5 10213.5 9190.06 10219.7 9190.07C10226.3 9190.07 10232.5 9188.72 10238.4 9186.01C10248.3 9181.26 10253.3 9173.35 10253.3 9162.27L10254 9053.41C10254 9045.1 10255.7 9036.89 10259 9029.25C10262.3 9021.62 10267.1 9014.74 10273.1 9009C10279.1 9003.27 10286.2 8998.82 10294 8995.9C10301.8 8992.98 10310.1 8991.67 10318.4 8992.03C10322.5 8992.26 10326.6 8992.49 10330.9 8992.71C10370.7 8994.97 10390.7 9016.11 10391 9056.13L10391.3 9155.49C10391.5 9183.74 10405.4 9194.71 10433 9188.38C10456.3 9182.95 10474.9 9188.15 10488.9 9203.98C10494.9 9210.63 10498.9 9218.79 10500.6 9227.57C10502.2 9236.34 10501.4 9245.4 10498.3 9253.76C10495.1 9262.11 10489.7 9269.45 10482.7 9274.96C10475.7 9280.47 10467.3 9283.96 10458.4 9285.03L10410.6 9290.79C10397.7 9292.37 10391.3 9299.72 10391.3 9312.83Z" fill="#D92128"/>
<path d="M8064.89 9447.46C8064.89 9520.22 8035.99 9590 7984.55 9641.45C7933.1 9692.9 7863.33 9721.8 7790.58 9721.8C7717.83 9721.8 7648.06 9692.9 7596.61 9641.45C7545.17 9590 7516.27 9520.22 7516.27 9447.46C7516.27 9374.7 7545.17 9304.92 7596.61 9253.47C7648.06 9202.02 7717.83 9173.12 7790.58 9173.12C7863.33 9173.12 7933.1 9202.02 7984.55 9253.47C8035.99 9304.92 8064.89 9374.7 8064.89 9447.46ZM7790.01 9623.12C7824.91 9623.3 7858.46 9605.26 7883.3 9572.95C7908.15 9540.65 7922.24 9496.73 7922.48 9450.86C7922.72 9404.99 7909.09 9360.93 7884.58 9328.37C7860.08 9295.81 7826.72 9277.41 7791.83 9277.23C7756.93 9277.05 7723.38 9295.09 7698.53 9327.4C7673.69 9359.7 7659.6 9403.62 7659.36 9449.49C7659.12 9495.35 7672.75 9539.41 7697.25 9571.98C7721.76 9604.54 7755.12 9622.93 7790.01 9623.12Z" fill="#D92128"/>
<path d="M8515.52 9658.05C8481.28 9678.06 8446.69 9704.85 8406.68 9711.97C8302.59 9730.62 8185.6 9681.79 8184.59 9562.42C8183.68 9445.54 8184.36 9337.36 8186.62 9237.89C8187.52 9202.62 8205.27 9181.94 8239.86 9175.83C8246.64 9174.7 8253.76 9174.93 8261.22 9176.51C8301 9185.33 8321.12 9210.2 8321.57 9251.12L8324.96 9528.51C8324.97 9535.18 8326.84 9541.86 8330.39 9547.84C8394.14 9654.77 8457.32 9638.5 8519.93 9499.01C8523.96 9490.06 8526.04 9480.35 8526.04 9470.52L8526.71 9252.47C8526.7 9235.12 8532.56 9218.27 8543.33 9204.66C8562.09 9180.92 8581.31 9170.86 8600.97 9174.48C8643.7 9182.61 8665.28 9208.61 8665.74 9252.47C8666.87 9378.4 8667.09 9509.41 8666.41 9645.5C8666.07 9727.23 8558.59 9746.22 8537.56 9667.21C8534.17 9654.77 8526.83 9651.72 8515.52 9658.05Z" fill="#D92128"/>
<path d="M8977.34 9226.7L8992.6 9208.39C9000.59 9198.62 9011 9191.13 9022.78 9186.68C9085.4 9163.4 9137.39 9174.93 9178.76 9221.27C9186.38 9229.89 9191.1 9240.7 9192.25 9252.15C9193.4 9263.61 9190.92 9275.13 9185.17 9285.06C9179.41 9294.99 9170.67 9302.83 9160.21 9307.45C9149.74 9312.07 9138.07 9313.25 9126.88 9310.8L9070.59 9298.59C9059.88 9296.3 9048.82 9296.22 9038.08 9298.35C9027.33 9300.49 9017.13 9304.8 9008.09 9311.01C8999.05 9317.23 8991.36 9325.23 8985.49 9334.52C8979.62 9343.81 8975.7 9354.2 8973.95 9365.06C8960.39 9449.84 8957.11 9541.28 8964.12 9639.4C8964.66 9647.78 8963.56 9656.17 8960.88 9664.08C8958.21 9672 8954.01 9679.28 8948.52 9685.52C8926.6 9710.39 8904.78 9720.9 8883.08 9717.06C8841.49 9710.05 8820.81 9685.52 8821.03 9643.47L8821.37 9241.96C8821.39 9229 8825.23 9216.35 8832.41 9205.6C8839.59 9194.86 8849.79 9186.5 8861.72 9181.6C8902.86 9164.64 8931.8 9178.09 8948.52 9221.95C8955.3 9240.04 8964.91 9241.62 8977.34 9226.7Z" fill="#D92128"/>
<path d="M9442.9 9242.64L9475.79 9209.4C9481.15 9203.82 9487.62 9199.43 9494.78 9196.52C9654.48 9130.05 9780.28 9219.58 9776.55 9391.17C9774.74 9478.43 9774.4 9561.06 9775.53 9639.06C9776.21 9687.44 9752.59 9713.44 9704.67 9717.06C9699.01 9717.51 9693.59 9716.94 9688.39 9715.36C9652.9 9704.74 9635.15 9680.88 9635.15 9643.81L9634.82 9385.4C9634.81 9371.66 9631.05 9358.38 9623.96 9347.08C9590.74 9294.18 9558.41 9273.27 9526.99 9284.35C9464.15 9306.73 9432.73 9351.27 9432.73 9417.96L9432.05 9642.11C9432.05 9680.55 9413.51 9704.96 9376.44 9715.36C9368.53 9717.62 9360.39 9717.85 9352.03 9716.04C9311.56 9707.22 9290.88 9682.01 9289.97 9640.42C9287.94 9518.34 9287.83 9387.89 9289.64 9249.08C9290.99 9157.86 9409.67 9147.01 9420.52 9235.18C9422.78 9253.04 9430.24 9255.52 9442.9 9242.64Z" fill="#D92128"/>
<path d="M10002.5 9174.48L9997.08 9174.47C9959.25 9174.4 9928.53 9205.02 9928.47 9242.85L9927.76 9647.75C9927.7 9685.58 9958.31 9716.31 9996.14 9716.37L10001.6 9716.38C10039.4 9716.45 10070.1 9685.83 10070.2 9648L10070.9 9243.1C10070.9 9205.27 10040.3 9174.55 10002.5 9174.48Z" fill="#D92128"/>
<path d="M10940.6 9656.02C10821.9 9758.09 10615.8 9732.66 10611.4 9546.82C10609.1 9440.79 10609.5 9336.91 10612.7 9235.18C10612.9 9226.8 10615 9218.56 10618.8 9211.06C10622.6 9203.55 10628.1 9196.97 10634.8 9191.77C10668.4 9165.55 10701.3 9167.58 10733.4 9197.88C10739.9 9203.96 10745.2 9211.32 10748.7 9219.49C10752.3 9227.66 10754.1 9236.46 10754.1 9245.35L10755.1 9535.97C10755.2 9547.9 10758.2 9559.61 10763.7 9570.12C10769.3 9580.63 10777.2 9589.62 10787 9596.33C10811.2 9613.06 10834.8 9619.17 10857.9 9614.65C10919.3 9602.21 10950.8 9564.68 10952.1 9502.06L10958.2 9231.45C10958.3 9223.73 10960.2 9216.14 10963.7 9209.27C10967.1 9202.39 10972.1 9196.41 10978.2 9191.77C10994.5 9179.11 11011.8 9173.23 11030.1 9174.14C11047.6 9174.93 11064.1 9182.46 11076.2 9195.17C11088.3 9207.88 11095 9224.77 11094.9 9242.3C11094.6 9367.09 11095.3 9501.38 11096.9 9645.17C11097.6 9729.6 10991.5 9744.86 10963.7 9662.12C10959.1 9648.56 10951.4 9646.52 10940.6 9656.02Z" fill="#D92128"/>
<path d="M11403.8 9231.11C11456 9163.96 11519.2 9155.6 11593.3 9206.01C11630.6 9231.45 11626.5 9284.35 11589.9 9308.09C11581.6 9313.51 11572.4 9315.21 11562.5 9313.17C11480.7 9296.9 11404.1 9282.65 11396.7 9399.99C11391 9485.22 11389 9564.57 11390.6 9638.04C11391.2 9673.76 11375.3 9698.74 11342.7 9712.99C11335.5 9716.15 11327.9 9717.28 11320 9716.38C11271.2 9710.95 11246.9 9683.71 11247.1 9634.65L11248.1 9242.64C11248.1 9229.22 11252.3 9216.11 11260 9205.08C11267.7 9194.05 11278.6 9185.62 11291.2 9180.92C11336.9 9163.96 11365.9 9179 11378.3 9226.02C11383.3 9244.78 11391.8 9246.48 11403.8 9231.11Z" fill="#D92128"/>
<path d="M11838.8 9480.02C11818.5 9479.34 11810.8 9488.83 11815.8 9508.5C11840.6 9604.36 11894.6 9644.26 11977.8 9628.21C12028 9618.37 12048 9584.8 12086.3 9556.66C12103.3 9544 12122.4 9538.8 12143.6 9541.06C12165.3 9543.09 12177.2 9550.1 12179.2 9562.08C12185.6 9598.93 12174.8 9627.98 12147 9649.23C12077.2 9702.36 11997.8 9724.06 11909 9714.34C11757.8 9697.84 11679 9613.17 11672.7 9460.35C11658.1 9111.4 12153.5 9070.03 12189.8 9394.9C12195.9 9450.51 12152.1 9479.34 12102.6 9480.69C12011.3 9483.41 11923.4 9483.18 11838.8 9480.02ZM11826.9 9400.33H12043.3C12045.2 9400.33 12047.1 9399.54 12048.5 9398.14C12049.9 9396.74 12050.7 9394.84 12050.7 9392.86V9388.79C12050.7 9358.76 12038.8 9329.95 12017.7 9308.71C11996.5 9287.46 11967.8 9275.53 11937.8 9275.53H11932.4C11902.4 9275.53 11873.7 9287.46 11852.6 9308.71C11831.4 9329.95 11819.5 9358.76 11819.5 9388.79V9392.86C11819.5 9394.84 11820.3 9396.74 11821.7 9398.14C11823.1 9399.54 11825 9400.33 11826.9 9400.33Z" fill="#D92128"/>
<path d="M12439.3 9295.54C12435.4 9300.29 12432.7 9305.98 12431.6 9312.06C12430.5 9318.14 12430.9 9324.42 12432.9 9330.29C12434.9 9336.17 12438.4 9341.45 12443 9345.63C12447.6 9349.82 12453.3 9352.77 12459.3 9354.21C12533.7 9371.84 12603.9 9395.13 12669.9 9424.06C12783.5 9474.25 12793.3 9633.98 12676 9684.5C12564.8 9732.43 12456.8 9728.59 12352.2 9672.97C12311 9651.27 12291.8 9617.58 12294.5 9571.92C12295.2 9559.71 12299.9 9548.08 12307.9 9538.84C12315.9 9529.6 12326.7 9523.25 12338.7 9520.79C12350.7 9518.32 12363.2 9519.86 12374.3 9525.18C12385.4 9530.5 12394.4 9539.3 12400 9550.21C12438.6 9626.85 12524.8 9661.1 12601.4 9612.95C12605.1 9610.6 12608.4 9607.5 12610.9 9603.82C12613.4 9600.15 12615.1 9595.98 12616 9591.58C12624.1 9543.88 12602.6 9514.61 12551.5 9503.75C12440 9480.02 12223.3 9414.91 12325.7 9258.24C12397.3 9149.04 12621.1 9147.35 12706.5 9248.4C12723.7 9268.52 12729 9291.25 12722.4 9316.57C12718.4 9333.75 12710.6 9343.58 12699 9346.07C12657.7 9355.56 12625.2 9343.69 12601.7 9310.46C12565.4 9259.26 12480.7 9245.69 12439.3 9295.54Z" fill="#D92128"/>
<path d="M7767.18 10234.5C7813.3 10188.4 7870.15 10169.5 7937.74 10177.9C8135.42 10202 8153.05 10398.7 8119.82 10557.4C8084.22 10727.3 7886.88 10758.5 7765.83 10661.1C7756.78 10653.7 7750.12 10655.5 7745.82 10666.6C7725.82 10718.5 7662.41 10737.8 7626.47 10690.3C7616.07 10676.7 7610.87 10655.8 7610.87 10627.6C7611.1 10430.2 7612.11 10238.7 7613.92 10053.1C7614.37 10010.8 7635.51 9987.33 7677.33 9982.58C7683.66 9981.9 7689.87 9982.35 7695.98 9983.94C7728.98 9992.3 7745.37 10013.4 7745.14 10047.4L7744.47 10225C7744.47 10246.5 7752.04 10249.7 7767.18 10234.5ZM7998.3 10399.6C7998.61 10369.7 7987.02 10340.8 7966.07 10319.4C7945.11 10298 7916.52 10285.8 7886.58 10285.5L7868.94 10285.3C7854.12 10285.2 7839.4 10287.9 7825.65 10293.5C7811.89 10299 7799.35 10307.2 7788.76 10317.6C7778.17 10327.9 7769.72 10340.3 7763.9 10353.9C7758.08 10367.6 7755.01 10382.2 7754.85 10397.1L7753.76 10502.2C7753.44 10532.1 7765.04 10561 7785.99 10582.4C7806.94 10603.8 7835.53 10616 7865.48 10616.3L7883.11 10616.5C7897.94 10616.6 7912.65 10613.9 7926.41 10608.3C7940.17 10602.8 7952.7 10594.6 7963.29 10584.2C7973.89 10573.9 7982.34 10561.5 7988.15 10547.9C7993.97 10534.2 7997.04 10519.6 7997.2 10504.7L7998.3 10399.6Z" fill="#D92128"/>
<path d="M8645.39 9981.9H8642C8603.24 9981.9 8571.81 10013.3 8571.81 10052.1V10646.2C8571.81 10685 8603.24 10716.4 8642 10716.4H8645.39C8684.15 10716.4 8715.58 10685 8715.58 10646.2V10052.1C8715.58 10013.3 8684.15 9981.9 8645.39 9981.9Z" fill="#D92128"/>
<path d="M8341.28 10114.5C8381.34 10115.5 8414.55 10088 8415.47 10053C8416.39 10018 8384.66 9988.74 8344.59 9987.69C8304.53 9986.64 8271.31 10014.2 8270.4 10049.2C8269.48 10084.2 8301.21 10113.4 8341.28 10114.5Z" fill="#D92128"/>
<path d="M8946.65 10114.4C8986.48 10112.4 9017.34 10082.4 9015.57 10047.4C9013.8 10012.4 8980.07 9985.73 8940.23 9987.75C8900.39 9989.77 8869.54 10019.8 8871.31 10054.7C8873.08 10089.7 8906.81 10116.4 8946.65 10114.4Z" fill="#D92128"/>
<path d="M6253.55 10208.1L6253.89 10642.5C6254.11 10686.4 6232.41 10711 6188.79 10716.4C6181.1 10717.3 6173.53 10716.5 6166.07 10714C6132.39 10703 6115.54 10679.7 6115.54 10644.2V10045.3C6115.54 10032.6 6120.56 10020.3 6129.51 10011.3C6138.45 10002.2 6150.61 9997 6163.35 9996.83L6290.17 9994.79C6303.81 9994.6 6317.12 9999.02 6327.95 10007.3C6338.78 10015.6 6346.49 10027.3 6349.85 10040.6L6451.57 10444.5C6456.99 10465.9 6462.65 10466 6468.52 10444.8L6580.76 10040.9C6583.66 10030.2 6589.61 10020.6 6597.86 10013.3C6606.11 10005.9 6616.31 10001.1 6627.21 9999.54C6678.07 9991.85 6725.32 9992.76 6768.94 10002.3C6780.93 10004.8 6791.68 10011.5 6799.39 10021.1C6807.11 10030.7 6811.32 10042.7 6811.33 10055.2L6812.01 10635.4C6812.01 10679.9 6790.31 10707.4 6746.9 10717.8C6733.57 10720.9 6720.68 10715.6 6708.25 10701.8C6687.45 10678.3 6677.17 10650.9 6677.39 10619.4L6679.43 10243C6679.65 10188.3 6672.65 10187.4 6658.41 10240.3C6624.72 10364.2 6591.38 10490.2 6558.38 10618.4C6542.44 10680.5 6515.32 10728.6 6445.13 10716.1C6428.78 10713.2 6413.68 10705.5 6401.72 10694C6389.77 10682.6 6381.51 10667.8 6377.99 10651.7C6345.44 10500.6 6309.16 10352 6269.15 10205.7C6258.75 10167.1 6253.55 10167.9 6253.55 10208.1Z" fill="#D92128"/>
<path d="M7487.11 10447.5C7487.11 10519.6 7458.46 10588.8 7407.46 10639.8C7356.46 10690.8 7287.29 10719.5 7215.17 10719.5C7143.05 10719.5 7073.88 10690.8 7022.88 10639.8C6971.88 10588.8 6943.23 10519.6 6943.23 10447.5C6943.23 10375.4 6971.88 10306.2 7022.88 10255.2C7073.88 10204.2 7143.05 10175.5 7215.17 10175.5C7287.29 10175.5 7356.46 10204.2 7407.46 10255.2C7458.46 10306.2 7487.11 10375.4 7487.11 10447.5ZM7346.46 10405.8C7346.71 10390.1 7343.86 10374.6 7338.09 10360C7332.32 10345.4 7323.74 10332.1 7312.83 10320.9C7301.92 10309.6 7288.91 10300.6 7274.52 10294.4C7260.14 10288.1 7244.66 10284.8 7228.99 10284.6L7208.65 10284.3C7192.98 10284 7177.41 10286.9 7162.84 10292.6C7148.27 10298.4 7134.97 10307 7123.72 10317.9C7112.46 10328.8 7103.46 10341.8 7097.24 10356.2C7091.01 10370.6 7087.68 10386.1 7087.44 10401.7L7085.91 10498.7C7085.67 10514.4 7088.51 10529.9 7094.28 10544.5C7100.05 10559.1 7108.63 10572.4 7119.54 10583.7C7130.45 10594.9 7143.47 10603.9 7157.85 10610.1C7172.24 10616.4 7187.71 10619.7 7203.38 10619.9L7223.72 10620.3C7239.39 10620.5 7254.96 10617.7 7269.53 10611.9C7284.11 10606.1 7297.4 10597.5 7308.66 10586.6C7319.91 10575.7 7328.91 10562.7 7335.13 10548.3C7341.36 10533.9 7344.69 10518.4 7344.94 10502.8L7346.46 10405.8Z" fill="#D92128"/>
<path d="M8344.37 10176.2L8338.94 10176.2C8300.74 10176.4 8269.88 10207.4 8270.01 10245.6L8271.41 10647.2C8271.55 10685.4 8302.62 10716.2 8340.83 10716.1L8346.25 10716.1C8384.45 10715.9 8415.31 10684.9 8415.18 10646.7L8413.78 10245.1C8413.65 10206.9 8382.57 10176.1 8344.37 10176.2Z" fill="#D92128"/>
<path d="M8945.89 10176.2L8941.14 10176.2C8902.94 10176.4 8872.08 10207.4 8872.21 10245.6L8873.61 10647.2C8873.75 10685.4 8904.82 10716.2 8943.03 10716.1L8947.77 10716.1C8985.97 10715.9 9016.84 10684.9 9016.7 10646.7L9015.3 10245.1C9015.17 10206.9 8984.09 10176.1 8945.89 10176.2Z" fill="#D92128"/>
<path d="M9320.15 10486.8C9292.58 10487.3 9284.1 10500.2 9294.72 10525.5C9327.95 10605.1 9375.53 10641.7 9437.47 10635.4C9491.05 10629.6 9513.09 10600.4 9550.72 10567.2C9567.9 10552.5 9587.68 10544 9610.06 10541.8C9655.95 10537.7 9664.31 10564.3 9635.15 10621.5C9625.89 10639.8 9612.78 10654.8 9595.82 10666.6C9485.96 10743.6 9286.25 10734.4 9200.46 10623.2C9163.39 10575.5 9147.11 10508.2 9151.63 10421.4C9166.55 10133.5 9547.33 10083 9657.19 10340.7C9686.69 10410.2 9658.55 10481.8 9572.43 10483.1C9490.82 10484.5 9406.73 10485.7 9320.15 10486.8ZM9301.84 10401.4L9520.89 10400C9522.77 10400 9524.59 10399.3 9525.92 10397.9C9527.26 10396.6 9528.01 10394.8 9528.01 10392.9V10388.5C9527.83 10358.3 9515.72 10329.4 9494.35 10308.1C9472.99 10286.9 9444.11 10275.1 9414.08 10275.2H9407.29C9392.42 10275.3 9377.71 10278.4 9364.01 10284.2C9350.3 10290 9337.86 10298.4 9327.41 10309.1C9316.96 10319.7 9308.69 10332.3 9303.08 10346.2C9297.47 10360.1 9294.63 10374.9 9294.72 10389.9V10394.3C9294.72 10395.2 9294.91 10396.1 9295.26 10397C9295.62 10397.9 9296.15 10398.6 9296.81 10399.3C9297.47 10400 9298.25 10400.5 9299.12 10400.8C9299.98 10401.2 9300.91 10401.4 9301.84 10401.4Z" fill="#D92128"/>
<path d="M9950.5 10231.8L9958.63 10220.3C9966.54 10209 9976.49 10200.3 9988.47 10194.2C10049.3 10162.8 10106.1 10170.5 10159 10217.2C10167.7 10224.8 10173.2 10235.5 10174.3 10247.1C10176.8 10275.1 10168.2 10294.9 10148.5 10306.4C10135.4 10314.1 10120.7 10315.4 10104.4 10310.2C10018 10282.7 9949.48 10298.6 9943.71 10403.4C9939.42 10481.2 9937.95 10557.6 9939.3 10632.7C9940.21 10679 9918.06 10707.2 9872.85 10717.1C9868.1 10718.2 9863.35 10718.2 9858.6 10717.1C9827.18 10709 9811.13 10688.6 9810.46 10656.1C9807.97 10522.7 9808.2 10383.1 9811.13 10237.3C9811.81 10199.7 9830.24 10178.8 9866.4 10174.5C9880.64 10172.7 9893.08 10176.9 9903.7 10187.1C9915.46 10197.9 9922.35 10210.8 9924.39 10225.7C9927.78 10249.7 9936.48 10251.7 9950.5 10231.8Z" fill="#D92128"/>
</svg>
